<svg id="Layer_1" data-name="Layer 1" xmlns="http://www.w3.org/2000/svg" viewBox="0 0 713 198"><defs><style>.cls-1{fill:#007ea4;}.cls-2{fill:#1aa64a;}.cls-3{fill:none;}</style></defs><title>tokocryptologo-freelogovectors.net</title><path class="cls-1" d="M98.6,389.46h-9c-5.41,0,13,25.77,26.3,28.74,3,.64,4.51,2.06,4.51,5v18.94c-.13,3.61-2.19,5.28-5.67,4.77-25.39-4.25-43.95-17.79-55.42-40.86a54.7,54.7,0,0,1-4-10.31c-1.93-5.93-2.06-6.18-8.38-6.44C39.18,389.07,34,385.08,32.35,378c-1.93-8,4.38-16.37,12.76-16.89a16.86,16.86,0,0,1,3.48,0c3.61.26,5.54-1.67,6.44-4.89a72.89,72.89,0,0,1,10.44-22.43c3.87-5.67,5.93-5.93,10.83-1.16,3.74,3.61,7.35,7.35,11,11,2.45,2.32,3,4.76.91,7.6A28.36,28.36,0,0,0,85.45,356c-1.68,3.48-.77,5,3.09,5,6.83.12,13.54,0,20.37,0,7.21.12,12.5,4.51,14.17,11.72,1.29,5.8-1.93,12.89-8.12,15.21-3.61,1.42-7.86,1.16-11.85,1.55-1.55.13-3,0-4.51,0" transform="translate(-18.5 -276)"/><path class="cls-2" d="M128.62,303c23.46,1,44.21,12.63,58.39,35.31,4.9,7.86,3.48,15.21-3.48,19.46-7.48,4.77-15.85,2.84-20.62-4.77-7.09-11.47-17.14-18.81-30.42-21.26a43.81,43.81,0,0,0-30.8,5.8c-4.25,2.58-5.54,2.32-9-1.16L81.45,325.15c-3.22-3.35-3.09-5.67.65-8.51,12-8.76,28.35-13.92,46.52-13.66m1,129.65V423a4,4,0,0,1,3.48-4.38c13.4-2.84,23.32-10.32,30.28-21.91,3.1-5.16,8-7.22,13.79-6.32,5.29.77,9.41,3.48,11.73,8.51a11.58,11.58,0,0,1-.39,10.31,71.69,71.69,0,0,1-53.09,37.5c-3.87.52-5.68-.9-5.8-4.77-.13-3,0-6.18,0-9.28Z" transform="translate(-18.5 -276)"/><path class="cls-1" d="M240,346.15v64.7H227.73v-64.7h-20V335.84h52.07v10.31Z" transform="translate(-18.5 -276)"/><path id="B" class="cls-1" d="M259.83,386.62a23.73,23.73,0,0,1,2.06-10.05,25.13,25.13,0,0,1,5.8-8.38,25.44,25.44,0,0,1,8.63-5.54,28.18,28.18,0,0,1,20.5,0,24.3,24.3,0,0,1,8.63,5.8,23.77,23.77,0,0,1,5.8,8.51,26,26,0,0,1,.13,20,24.46,24.46,0,0,1-5.8,8.38,27,27,0,0,1-19.2,7.73,27.53,27.53,0,0,1-10.19-1.93,25.79,25.79,0,0,1-8.63-5.67,26.26,26.26,0,0,1-5.8-8.51,31.09,31.09,0,0,1-1.93-10.31Zm41.88.13a15.93,15.93,0,0,0-4.38-11.47,14.15,14.15,0,0,0-10.7-4.64,14.35,14.35,0,0,0-10.69,4.64,17.18,17.18,0,0,0,0,22.94,14.65,14.65,0,0,0,21.39,0A15.93,15.93,0,0,0,301.71,386.75Z" transform="translate(-18.5 -276)"/><path class="cls-1" d="M325.3,411V331.46h11.08v51l20.37-20.24h13.79l-22,21.4,24.23,27.19H358.29l-21.91-25.13v25.13H325.3Z" transform="translate(-18.5 -276)"/><path id="B-2" data-name="B" class="cls-1" d="M373.76,386.62a23.73,23.73,0,0,1,2.06-10.05,25.13,25.13,0,0,1,5.8-8.38,25.44,25.44,0,0,1,8.63-5.54,28.18,28.18,0,0,1,20.5,0,24.3,24.3,0,0,1,8.63,5.8,23.77,23.77,0,0,1,5.8,8.51,26,26,0,0,1,.13,20,24.46,24.46,0,0,1-5.8,8.38,27,27,0,0,1-19.2,7.73,27.44,27.44,0,0,1-10.18-1.93,25.73,25.73,0,0,1-8.64-5.67,26.26,26.26,0,0,1-5.8-8.51,31.09,31.09,0,0,1-1.93-10.31Zm41.88.13a15.93,15.93,0,0,0-4.38-11.47,14.15,14.15,0,0,0-10.7-4.64,14.35,14.35,0,0,0-10.69,4.64,17.21,17.21,0,0,0,0,22.94,14.65,14.65,0,0,0,21.39,0A15.93,15.93,0,0,0,415.64,386.75Z" transform="translate(-18.5 -276)"/><path class="cls-2" d="M475.45,376.18a15.85,15.85,0,0,0-5.93-4.25,17.93,17.93,0,0,0-7.35-1.55c-4.51,0-8.25,1.42-10.95,4.39s-4.13,6.83-4.13,11.72,1.42,9,4.13,12,6.57,4.38,11.47,4.38a16.07,16.07,0,0,0,7.21-1.54,15.87,15.87,0,0,0,5.55-4.64v12.88a24,24,0,0,1-6.58,2.58,33.67,33.67,0,0,1-7.47.9c-7.61,0-13.79-2.45-18.69-7.34s-7.09-11.22-7.09-18.95,2.45-14.18,7.48-18.94,11.47-7.22,19.46-7.22a29.13,29.13,0,0,1,7,.77,24,24,0,0,1,5.93,2.32v12.5ZM498,370a15.55,15.55,0,0,1,4.77-7.09,11.35,11.35,0,0,1,7.34-2.32,19.24,19.24,0,0,1,4.64.51,21.53,21.53,0,0,1,4.51,1.68l-4,9.41a11.47,11.47,0,0,0-3.09-1.55,11.33,11.33,0,0,0-3.74-.51c-3.74,0-6.32,1.41-8,4.38s-2.45,8-2.45,14.95v21.39H486.92V362.14H498V370Z" transform="translate(-18.5 -276)"/><path class="cls-2" d="M534,433.79H522.49l13.4-27.06L518,362.26h12.37l8.89,25.14,1.42,4.64a29.56,29.56,0,0,1,.9,4.89,57.16,57.16,0,0,1,3.22-8.12l.26-.64,12-25.91h12.11L534,433.79Zm41.11,0V362.26h11.08v8a14.47,14.47,0,0,1,6.19-7.08,19.88,19.88,0,0,1,10.18-2.58,19.64,19.64,0,0,1,15.73,7.22c4,4.76,6,11.08,6,18.81,0,8.12-1.93,14.57-5.93,19.33S609,413,602.14,413A18.4,18.4,0,0,1,586,404.67v29.25h-11Zm10.83-47.3c0,5,1.29,9,3.73,12.12a12.51,12.51,0,0,0,9.93,4.51c4.25,0,7.47-1.42,9.79-4.25s3.48-6.83,3.48-12-1.16-9.15-3.61-12a12.42,12.42,0,0,0-9.92-4.38c-4.25,0-7.47,1.42-9.79,4.26s-3.61,6.7-3.61,11.72Zm53,24.49V372.06h-8.51v-9.8h8.51V343.83H650v18.43h8.51v9.8H650V411Zm25.64-24.36a23.74,23.74,0,0,1,2.07-10.05A26.07,26.07,0,0,1,681,362.65a28.16,28.16,0,0,1,20.49,0,24.25,24.25,0,0,1,8.64,5.8,23.77,23.77,0,0,1,5.8,8.51,26,26,0,0,1,.13,20,24.6,24.6,0,0,1-5.8,8.38A27.07,27.07,0,0,1,691.06,413a27.44,27.44,0,0,1-10.18-1.93,25.79,25.79,0,0,1-8.63-5.67,26.26,26.26,0,0,1-5.8-8.51,28.13,28.13,0,0,1-1.94-10.31Zm41.89.13A16,16,0,0,0,702,375.28a14.18,14.18,0,0,0-10.7-4.64,14.39,14.39,0,0,0-10.7,4.64,17.21,17.21,0,0,0,0,22.94,14.66,14.66,0,0,0,21.4,0A16,16,0,0,0,706.4,386.75Z" transform="translate(-18.5 -276)"/><rect class="cls-3" width="713" height="198"/></svg>